<svg version="1.1" id="Layer_1" xmlns="http://www.w3.org/2000/svg" xmlns:xlink="http://www.w3.org/1999/xlink" x="0px" y="0px"
	 width="100%" viewBox="0 0 1024 1024" enable-background="new 0 0 1024 1024" xml:space="preserve">
<path fill="#000000" opacity="1.000000" stroke="none" 
	d="
M249.999878,422.836365 
	C467.660522,422.836639 684.821167,422.838409 901.981812,422.846741 
	C920.356812,422.847443 933.150330,430.667938 939.028748,445.476776 
	C940.518677,449.230194 941.220154,453.138336 941.140991,457.196899 
	C941.085205,460.058228 939.884338,461.555450 936.875854,461.367340 
	C935.549133,461.284363 934.187134,461.222076 932.882996,461.422821 
	C929.008118,462.019257 926.271667,464.061829 926.207825,468.219666 
	C926.141113,472.554718 928.791199,474.951050 932.905396,475.590240 
	C941.224426,476.882751 941.236938,476.823029 941.236450,485.249207 
	C941.236084,491.582336 941.037415,497.922821 941.283142,504.246185 
	C941.461609,508.839050 939.763000,510.627380 935.133606,510.130981 
	C930.784241,509.664673 927.044495,510.768555 926.176392,515.885681 
	C925.315063,520.963196 929.160522,525.003540 935.205872,524.335999 
	C940.617188,523.738403 941.427551,526.106506 941.309631,530.542114 
	C941.114685,537.870056 941.112915,545.210938 941.314575,552.538574 
	C941.429688,556.721313 940.154785,558.958557 935.618347,558.334900 
	C934.803711,558.222900 933.945801,558.284363 933.123962,558.390564 
	C928.969604,558.928162 926.233337,561.100159 926.135071,565.456482 
	C926.033569,569.952515 929.027283,571.990356 933.038391,572.575928 
	C941.229126,573.771667 941.239624,573.700134 941.214355,582.334106 
	C941.162415,600.135132 932.889832,612.185730 916.875977,618.046326 
	C912.500671,619.647583 908.019775,619.407471 903.538879,619.407166 
	C801.374878,619.399963 699.210876,619.352356 597.046875,619.353699 
	C448.217438,619.355652 299.387939,619.356873 150.558609,619.491455 
	C141.378418,619.499756 133.047516,617.932800 125.882324,611.896423 
	C114.698792,602.474792 112.091690,590.057556 113.305756,576.268494 
	C113.540985,573.596802 114.936569,572.547729 117.589676,572.631470 
	C119.393654,572.688477 121.297417,572.605347 123.003807,572.084412 
	C126.240837,571.096191 127.776062,568.605713 127.818710,565.260376 
	C127.860695,561.966553 125.975731,560.081848 123.052246,558.974854 
	C121.114449,558.241028 119.108253,558.289246 117.125427,558.438965 
	C114.451920,558.640869 112.948944,557.678162 112.964203,554.865356 
	C113.011208,546.201294 113.023293,537.536621 113.143097,528.873474 
	C113.185509,525.806519 114.248306,523.750061 118.015678,524.475098 
	C119.416992,524.744812 121.003479,524.381714 122.445435,524.047729 
	C126.434166,523.124023 128.456528,520.460388 128.110779,516.433350 
	C127.775955,512.533569 125.166000,510.692810 121.416374,510.244324 
	C113.096802,509.249237 113.051872,509.237610 113.058693,500.910126 
	C113.064415,493.917267 112.733177,486.925903 113.379440,479.929077 
	C113.667015,476.815765 114.788300,475.326630 118.010368,475.697662 
	C118.993713,475.810883 120.014458,475.734711 121.005028,475.626221 
	C124.971748,475.191742 127.579041,473.138672 127.896255,469.035248 
	C128.225021,464.782379 125.422035,462.694519 121.815231,461.617889 
	C120.427315,461.203613 118.821190,461.289246 117.346092,461.445496 
	C114.102356,461.789032 113.393341,459.972900 113.271675,457.264832 
	C112.560196,441.428131 125.146019,426.197266 141.054489,423.665314 
	C145.184479,423.008026 149.329926,422.829376 153.503769,422.832031 
	C185.502457,422.852509 217.501175,422.841064 249.999878,422.836365 
M300.234741,551.500000 
	C300.224091,559.662903 300.392426,567.831665 300.129395,575.986389 
	C299.992188,580.240051 301.237518,582.122986 305.759369,581.774536 
	C310.065247,581.442749 314.416626,581.720398 318.747803,581.694092 
	C325.091370,581.655518 325.475281,581.189514 325.630188,574.863037 
	C326.111053,555.219116 324.606628,535.576111 325.633575,515.935608 
	C325.729370,514.103943 324.800690,511.947601 326.933105,510.344666 
	C329.339874,511.522552 330.474213,513.843018 331.972076,515.760803 
	C346.526398,534.394775 361.345825,552.833801 375.420105,571.824646 
	C381.037689,579.404663 387.147919,582.993591 396.705414,581.905579 
	C401.477631,581.362305 402.909637,580.114563 402.863678,575.429932 
	C402.657867,554.441650 402.756439,533.450378 402.750305,512.460144 
	C402.746185,498.466675 402.660095,484.472260 402.809509,470.480377 
	C402.851379,466.560364 401.394867,465.109406 397.521790,465.288086 
	C392.701019,465.510468 387.849426,465.559875 383.034912,465.277863 
	C378.564301,465.015961 377.218872,466.939880 377.300476,471.159149 
	C377.677155,490.640381 376.834229,510.133789 377.848511,529.612122 
	C377.930908,531.195312 378.406219,532.990662 376.680878,534.173889 
	C375.274841,534.148560 374.729553,533.033020 374.021667,532.138550 
	C359.448761,513.723633 344.847839,495.330719 330.316406,476.883118 
	C321.250519,465.373932 321.297791,465.336731 306.967285,465.348511 
	C300.390747,465.353912 300.234802,465.484802 300.233185,472.036621 
	C300.226715,498.191071 300.236450,524.345520 300.234741,551.500000 
M185.525436,482.027893 
	C173.297867,494.152222 166.706406,508.890808 167.533142,526.036316 
	C169.134827,559.253113 195.507095,583.012024 228.933655,583.108032 
	C260.993073,583.200012 293.119965,553.836914 286.230530,513.676392 
	C282.328491,490.930267 268.442841,474.771240 246.232254,467.933807 
	C224.079239,461.114075 203.373383,464.921570 185.525436,482.027893 
M418.304504,479.515320 
	C418.310120,511.496735 418.335144,543.478149 418.293488,575.459473 
	C418.289001,578.904907 418.330353,581.754089 423.070404,581.735779 
	C448.221954,581.638611 473.374115,581.664429 498.525940,581.710632 
	C501.494995,581.716064 502.767365,580.511475 502.712311,577.546021 
	C502.625854,572.883911 502.716736,568.218750 502.703766,563.554932 
	C502.685547,556.995056 502.255768,556.460938 495.640015,556.421997 
	C481.815186,556.340576 467.989258,556.447327 454.164490,556.361938 
	C443.094208,556.293579 443.851166,557.567566 443.754395,546.256470 
	C443.735870,544.091125 443.902496,541.909729 443.694458,539.763794 
	C443.307678,535.773499 445.074890,534.558716 448.914856,534.618530 
	C460.238800,534.794861 471.567291,534.684204 482.893982,534.681885 
	C497.830444,534.678772 497.830444,534.677063 497.832672,519.856201 
	C497.833862,511.948700 497.833893,511.980499 489.716125,511.990631 
	C476.224365,512.007446 462.731903,511.903625 449.241089,512.015381 
	C445.217621,512.048767 443.459198,510.576782 443.716949,506.437531 
	C443.944122,502.788574 443.962830,499.091766 443.648010,495.452881 
	C443.263519,491.008087 445.055054,489.681427 449.382385,489.732086 
	C465.204041,489.917358 481.029968,489.712006 496.853027,489.827667 
	C500.417755,489.853699 502.079102,488.783875 501.951996,485.008331 
	C501.789581,480.184967 501.860596,475.344360 502.063751,470.520996 
	C502.226105,466.666626 500.723450,465.270111 496.798462,465.319000 
	C474.661407,465.594788 452.520935,465.596649 430.383972,465.876862 
	C426.530975,465.925629 421.678802,463.272186 419.032623,466.794769 
	C416.740875,469.845581 418.595703,474.557831 418.304504,479.515320 
M583.232178,581.732605 
	C590.366638,581.576172 591.076050,581.318787 590.515137,574.414673 
	C589.649292,563.756348 590.942505,553.112854 590.137573,542.475037 
	C589.981995,540.419434 589.458801,538.117065 591.270813,536.342163 
	C593.593567,536.339355 594.230225,538.268494 595.279175,539.693970 
	C604.459900,552.170654 613.609558,564.670410 622.844849,577.106628 
	C624.104614,578.803040 625.198914,581.318115 627.467957,581.417175 
	C636.711365,581.820984 645.977478,582.123657 655.688599,581.218689 
	C654.023682,577.197815 651.612549,574.432861 649.421021,571.540527 
	C637.950745,556.402344 626.577942,541.187744 614.903748,526.208191 
	C611.566895,521.926636 611.469421,518.700867 614.954773,514.427246 
	C625.587646,501.389496 635.901978,488.090698 646.256104,474.827850 
	C648.415466,472.061920 651.057678,469.527710 652.390198,465.371094 
	C644.289795,465.371094 636.796570,465.666504 629.341003,465.264191 
	C624.603210,465.008545 621.534973,466.719666 618.845947,470.416687 
	C611.987671,479.845856 604.980164,489.170227 597.848877,498.394745 
	C595.782166,501.068146 594.292114,504.297485 591.475830,506.320679 
	C590.099915,505.375854 590.074097,504.167450 590.089722,503.014435 
	C590.224854,493.021973 589.597046,483.021515 590.417175,473.035980 
	C590.917603,466.942566 589.655457,465.501923 583.641541,465.382935 
	C579.643188,465.303802 575.642761,465.328064 571.643250,465.305389 
	C565.189392,465.268799 565.128174,465.298676 565.118530,471.590790 
	C565.092468,488.589050 565.079041,505.587341 565.089172,522.585632 
	C565.099854,540.583801 565.213745,558.582336 565.116333,576.579834 
	C565.095642,580.401123 566.306824,582.088501 570.300720,581.827454 
	C574.284058,581.567078 578.296326,581.748779 583.232178,581.732605 
M836.728699,583.663635 
	C841.082703,583.970398 845.364746,583.323853 849.643982,582.671082 
	C866.105530,580.159851 879.435730,566.368958 880.115967,549.109619 
	C880.691956,534.494873 876.237793,523.360840 856.197205,516.752258 
	C849.883728,514.670349 843.381897,513.164551 836.989807,511.313660 
	C834.598938,510.621368 832.198669,509.866608 829.937317,508.842804 
	C825.671387,506.911377 822.763062,503.666534 823.053040,498.799866 
	C823.359558,493.654541 826.813538,490.901672 831.595825,489.619080 
	C841.026611,487.089813 848.900574,490.739960 856.373779,495.877899 
	C864.437988,501.422119 864.555176,501.560547 870.845032,493.655334 
	C878.788635,483.671692 881.184875,485.923615 869.100586,475.878204 
	C852.276978,461.892975 825.802917,461.171387 809.805969,474.395386 
	C793.018311,488.273071 790.699585,517.828979 816.157959,529.064392 
	C822.581970,531.899475 829.274902,533.896545 836.070190,535.560608 
	C840.120239,536.552490 844.141846,537.590271 847.933777,539.356873 
	C851.966187,541.235535 855.127808,544.093445 854.953491,548.780884 
	C854.768188,553.764893 851.674866,557.001343 846.943665,558.544373 
	C843.435181,559.688599 839.901978,560.222168 836.141418,559.710510 
	C827.204407,558.494385 819.733337,554.346619 813.167908,548.469055 
	C810.507263,546.087158 808.770508,546.223694 806.795044,549.130554 
	C804.081787,553.123108 801.243713,557.039734 798.282959,560.852051 
	C796.412598,563.260437 796.495544,564.971619 798.751648,567.228943 
	C809.024780,577.507263 821.574646,582.441895 836.728699,583.663635 
M733.414001,549.499329 
	C733.601440,558.485168 733.924194,567.471130 733.915955,576.456787 
	C733.912170,580.588440 735.523376,582.050232 739.590088,581.766052 
	C743.733032,581.476562 747.912231,581.715515 752.075439,581.703125 
	C758.827515,581.683044 758.908203,581.586975 758.911377,574.601990 
	C758.923279,548.290039 759.008728,521.977783 758.882446,495.666443 
	C758.862000,491.394806 760.147522,489.609985 764.593689,489.827332 
	C770.575134,490.119720 776.582031,489.845154 782.574768,489.969604 
	C785.785339,490.036285 787.049194,488.613556 787.082581,485.494049 
	C787.130676,481.004730 787.459778,476.519226 787.565735,472.029633 
	C787.689941,466.767395 786.104431,465.291229 780.646851,465.455566 
	C776.489197,465.580688 772.332214,465.905090 768.176392,465.880829 
	C748.708862,465.767212 729.240417,465.644501 709.775635,465.326416 
	C705.697815,465.259796 703.981873,466.567230 704.193909,470.744843 
	C704.438354,475.562805 704.394165,480.403412 704.273193,485.229156 
	C704.187256,488.658325 705.687012,490.056091 709.041382,490.009644 
	C715.201843,489.924255 721.364563,489.943695 727.525818,489.993622 
	C733.663086,490.043396 734.053040,490.395630 733.997986,496.561554 
	C733.843323,513.874573 733.613892,531.187012 733.414001,549.499329 
M665.926086,466.793671 
	C664.582031,475.428497 666.445801,484.074158 665.890564,492.696686 
	C664.465027,514.833435 666.392883,536.985657 665.441101,559.123718 
	C665.212708,564.436340 665.442627,569.768066 665.431396,575.090881 
	C665.419312,580.834045 666.304810,581.755127 671.976868,581.748840 
	C676.308899,581.744019 680.640930,581.732849 684.972961,581.716370 
	C691.634766,581.691101 691.656067,581.687988 691.615051,575.041016 
	C691.419800,543.402405 691.209839,511.763794 691.011353,480.125153 
	C690.989380,476.627014 691.038208,473.128235 690.994751,469.630493 
	C690.970215,467.648956 690.357361,465.667236 688.101196,465.633575 
	C680.845764,465.525238 673.549133,464.398224 665.926086,466.793671 
z"/>
<path fill="#000000" opacity="1.000000" stroke="none" 
	d="
M583.434326,888.604004 
	C555.412598,892.979492 527.745667,894.117798 499.862152,891.679565 
	C469.669922,889.039551 440.187073,883.245605 411.668610,873.060974 
	C367.963654,857.452698 327.852539,835.493469 292.956207,804.538757 
	C260.314362,775.583923 233.558060,742.061646 213.989059,702.965881 
	C203.441528,681.893494 194.983810,660.029602 189.702805,637.009460 
	C189.373978,635.576050 188.747604,634.125916 189.404221,632.609619 
	C192.822418,631.552368 854.915222,631.023499 862.647949,632.087036 
	C863.927246,634.141479 862.963623,636.212708 862.511658,638.265503 
	C852.008728,685.972473 829.551392,727.651001 798.695557,765.139038 
	C756.105530,816.883484 703.254700,853.621277 639.524536,874.659790 
	C621.297119,880.677002 602.821411,885.529846 583.434326,888.604004 
M530.381714,659.290405 
	C527.050720,659.350525 523.692322,659.155273 520.392883,659.509155 
	C473.781250,664.508911 442.094055,705.940247 449.177338,752.534058 
	C456.282776,799.273499 505.276520,829.810425 550.689941,815.805054 
	C590.405884,803.556824 613.729004,765.432678 606.602722,724.409546 
	C600.379822,688.586121 567.494812,660.140625 530.381714,659.290405 
M271.996277,682.462463 
	C273.526581,686.884033 275.605530,691.049377 277.974335,695.069580 
	C289.179718,714.086670 311.939667,723.551636 331.982056,717.550415 
	C351.512146,711.702576 365.553314,694.106750 367.791443,672.675537 
	C368.721954,663.765198 368.381104,663.372620 359.350189,663.378601 
	C330.920319,663.397583 302.490234,663.485229 274.060760,663.394165 
	C270.186401,663.381775 268.858368,664.991577 269.388397,668.485596 
	C270.059906,672.912598 270.920441,677.310852 271.996277,682.462463 
M434.171722,691.964233 
	C435.496796,692.383118 436.713470,693.784912 438.238708,692.462646 
	C437.942474,686.822510 437.942474,686.822510 430.502319,683.001831 
	C424.101379,679.714844 423.395660,678.033142 425.648193,671.267578 
	C429.815369,671.440125 432.805145,675.543457 437.308929,674.961365 
	C438.521271,672.260498 438.318146,670.060852 435.541107,668.583374 
	C431.277893,666.315002 426.997894,664.078125 422.735748,661.807678 
	C421.218781,660.999695 419.918396,661.420715 418.518616,662.216064 
	C414.321808,664.600708 410.080566,666.908386 405.832031,669.200439 
	C402.404541,671.049377 402.305634,673.497070 404.179871,676.558899 
	C408.786133,676.009888 411.566040,671.716187 415.966156,671.381592 
	C418.613953,677.968323 417.715942,680.891113 412.314972,684.004395 
	C409.862183,685.418335 407.418121,686.849609 405.007538,688.333862 
	C402.987976,689.577393 401.423401,691.354614 402.998352,693.651184 
	C404.460693,695.783325 406.234772,693.993958 407.807556,693.219421 
	C410.540619,691.873474 412.740234,689.307373 415.821930,689.217102 
	C417.308350,690.578247 417.151245,691.972778 417.151001,693.272034 
	C417.146088,719.429932 417.124268,745.587830 417.084869,771.745728 
	C417.081268,774.137024 416.502045,776.176086 414.452148,777.891907 
	C408.770477,782.647583 407.085388,791.431641 410.187531,798.844910 
	C412.478882,798.536255 414.192810,797.018005 415.573090,795.489014 
	C418.350647,792.412292 420.754150,792.868774 423.687317,795.205383 
	C425.797638,796.886597 427.751678,799.096313 430.962738,799.458496 
	C432.468018,795.840149 431.481873,792.315674 431.777374,788.910645 
	C432.144409,784.681030 431.347961,781.044983 427.356720,778.585510 
	C424.580139,776.874512 424.596283,773.915283 424.601410,771.003906 
	C424.636017,751.343506 424.618469,731.683105 424.617981,712.022644 
	C424.617767,704.063538 424.617950,696.104370 424.617950,687.484985 
	C427.919281,689.042847 430.727051,690.367798 434.171722,691.964233 
M765.144836,690.964722 
	C765.358521,692.048279 765.055847,693.375061 767.013550,694.056763 
	C771.092468,690.595825 773.679016,686.080688 775.512756,679.965210 
	C744.885620,679.965210 715.018066,679.965210 684.751709,679.965210 
	C686.465881,686.302185 688.695190,691.531982 693.767822,695.819763 
	C696.297729,686.566650 696.297729,686.566650 705.551636,686.690918 
	C705.718079,686.693115 705.887268,686.713623 706.050476,686.691284 
	C710.207581,686.123474 711.603577,688.002136 711.486267,692.072815 
	C711.260986,699.887878 711.364563,707.713989 711.423767,715.534851 
	C711.453613,719.477722 717.425476,725.200195 721.158569,724.223999 
	C725.565674,723.071533 723.507202,718.962097 723.346069,716.202393 
	C722.869751,708.046082 723.151306,699.898926 723.070862,691.748962 
	C723.037170,688.335083 724.234802,686.299500 728.048523,686.719421 
	C729.034180,686.828003 730.058655,686.829956 731.039612,686.694824 
	C735.601074,686.066284 737.304749,687.966675 737.158020,692.571899 
	C736.887695,701.051392 736.991150,709.544800 737.054810,718.031555 
	C737.070312,720.094421 736.490112,722.361572 738.111328,724.151917 
	C746.664734,722.489624 748.693420,720.170837 748.698303,712.068237 
	C748.701050,707.408325 748.588196,702.747864 748.630005,698.088623 
	C748.744751,685.288269 746.411316,686.718567 761.056885,686.727051 
	C763.475830,686.728455 764.782349,687.824219 765.144836,690.964722 
M645.089539,690.186218 
	C648.451660,691.247681 651.167114,694.182678 655.169067,693.898682 
	C656.270569,690.530518 655.465332,688.238098 652.430298,686.695557 
	C650.059875,685.490906 647.772827,684.122009 645.451294,682.821350 
	C640.195618,679.876770 639.517761,677.806641 641.959229,671.796021 
	C646.590027,672.005249 650.058899,676.318054 654.917297,675.931274 
	C655.969116,673.996216 656.322327,671.767212 654.679382,670.766785 
	C648.229614,666.839417 641.494202,663.432007 634.047363,661.663879 
	C632.909729,664.527466 633.348999,666.880432 633.344971,669.172241 
	C633.285706,702.803284 633.247925,736.434387 633.276062,770.065491 
	C633.278931,773.540710 632.765015,776.439636 629.868408,778.930115 
	C624.852173,783.243103 623.476440,792.576965 626.511597,799.360657 
	C629.141602,798.628540 631.331787,797.026184 633.169373,795.172180 
	C635.724854,792.593811 637.825378,792.839233 640.474060,795.021118 
	C642.537537,796.720886 644.467834,799.040649 647.571899,798.912781 
	C649.640686,792.709595 649.445557,783.455811 646.298584,781.132935 
	C640.750366,777.037720 640.339905,771.684387 640.656189,765.653015 
	C640.917419,760.672180 640.700684,755.666382 640.698975,750.671631 
	C640.692505,731.691650 640.665833,712.711609 640.710449,693.731750 
	C640.715759,691.473938 639.834412,687.996399 645.089539,690.186218 
M707.500122,663.360168 
	C700.677246,663.364136 693.854370,663.383118 687.031555,663.364136 
	C684.630188,663.357483 683.311523,664.310059 683.253601,666.885559 
	C683.193604,669.550537 684.224792,670.999817 687.009277,670.940613 
	C687.840759,670.922974 688.673157,670.951111 689.505127,670.951233 
	C716.130737,670.956543 742.756409,670.963806 769.382019,670.959412 
	C771.211182,670.959106 773.042236,670.906128 774.869141,670.813843 
	C777.225830,670.694702 777.884277,669.155334 777.937927,667.081299 
	C777.993408,664.938293 777.257080,663.505249 774.897278,663.409424 
	C773.733948,663.362183 772.568237,663.358459 771.403625,663.358337 
	C750.435791,663.356934 729.467957,663.359131 707.500122,663.360168 
M376.644806,748.500488 
	C376.644806,741.958740 376.644806,735.416992 376.644806,728.517883 
	C371.857361,728.741211 369.232635,731.428223 366.002686,732.421326 
	C360.905762,733.988159 360.429932,737.327026 361.866730,741.564758 
	C363.739716,742.691345 365.512573,740.311035 367.246124,741.772705 
	C368.468506,743.540588 368.069885,745.580688 368.082031,747.536987 
	C368.120178,753.674316 368.191772,759.813599 368.075470,765.948792 
	C368.011444,769.327820 369.944092,770.166687 372.756134,770.344543 
	C376.017090,770.550842 376.658875,768.558960 376.653107,765.921936 
	C376.641113,760.447876 376.647034,754.973755 376.644806,748.500488 
M688.480835,742.793152 
	C688.435242,750.783203 688.434937,758.773865 688.319458,766.762878 
	C688.278992,769.559021 689.527344,770.616516 692.236694,770.614990 
	C694.924500,770.613403 696.816956,770.046143 696.796448,766.821472 
	C696.719299,754.669128 696.709351,742.516479 696.623291,730.364258 
	C696.619202,729.791138 696.126892,729.221375 695.893433,728.717957 
	C685.988892,730.046753 681.386414,734.445190 682.942505,740.900024 
	C684.595642,741.927063 686.988403,739.467163 688.480835,742.793152 
M387.445435,716.093872 
	C386.382477,715.290894 385.293304,714.520020 384.261963,713.678284 
	C381.971313,711.809082 379.916321,712.226929 378.261505,714.453857 
	C376.329193,717.054260 378.918823,717.905151 380.330841,719.067383 
	C382.386078,720.759033 384.571320,722.291565 386.671570,723.929871 
	C390.658203,727.039673 395.046143,729.695801 398.405731,733.617859 
	C392.634583,738.602905 392.384430,739.335754 394.274933,744.990112 
	C396.570435,743.993469 403.912689,739.212158 405.017578,737.994446 
	C408.019348,734.686157 407.210388,729.456055 403.326721,726.845337 
	C398.218567,723.411499 393.130798,719.947510 387.445435,716.093872 
M660.018494,734.697449 
	C658.342407,732.562500 660.351807,731.740295 661.531494,730.805603 
	C666.469238,726.893433 671.506287,723.106384 676.440979,719.190369 
	C677.997925,717.954651 680.684509,716.924072 678.602173,714.175232 
	C676.821899,711.825195 674.676453,712.234009 672.508301,713.792603 
	C666.315308,718.244629 660.123047,722.698547 653.880371,727.080261 
	C651.924255,728.453247 651.140564,730.198853 651.106567,732.553101 
	C651.029663,737.887207 655.916077,742.792358 663.530884,744.702454 
	C664.713684,740.815186 664.111023,737.554749 660.018494,734.697449 
M295.847260,773.246704 
	C295.947205,776.939392 301.023987,782.512390 305.354584,783.125244 
	C309.059113,783.649536 310.960693,781.000671 312.539520,778.081909 
	C313.237823,776.790955 314.062592,775.458313 315.147614,774.506775 
	C318.611816,771.468689 318.273285,768.566284 315.139038,765.635010 
	C313.216919,763.837402 311.496490,761.761963 308.766449,760.673523 
	C304.061768,764.118286 300.486603,768.759583 295.847260,773.246704 
M563.660278,847.704651 
	C561.587646,846.906372 560.339111,847.620850 560.336731,849.830017 
	C560.331421,854.813660 561.288513,859.691284 562.243225,864.559998 
	C562.446716,865.597656 562.915955,866.532288 564.155762,866.406372 
	C565.699951,866.249573 565.721863,864.967773 565.839172,863.795471 
	C566.041748,861.770874 565.082703,859.583069 566.438110,857.603149 
	C570.184875,858.163574 571.604980,861.364746 573.998535,863.259583 
	C575.369141,864.344666 576.773621,865.288025 578.496582,864.372070 
	C580.189270,863.472168 579.652466,861.796814 579.431885,860.364563 
	C578.852295,856.601318 578.240295,852.841553 577.544373,849.098389 
	C577.253174,847.532288 577.130981,845.677307 574.735046,845.631042 
	C571.080750,848.299255 576.244019,852.662964 572.727295,855.781006 
	C569.841736,853.154724 567.057434,850.620605 563.660278,847.704651 
M784.971924,724.579651 
	C785.701782,726.975586 787.450195,729.117798 787.083557,732.150330 
	C783.425537,731.472290 781.344299,729.011169 779.015808,726.992493 
	C777.781921,725.922729 776.672729,724.958496 775.311279,726.696045 
	C774.183105,728.135864 775.034790,729.184021 776.151001,730.050476 
	C780.704346,733.584839 785.330933,737.013367 790.609558,739.871643 
	C792.002991,736.802490 792.913147,734.373230 790.768738,731.354004 
	C789.293457,729.276733 788.810730,726.452148 788.077515,723.905945 
	C787.626038,722.338379 787.174133,720.450378 788.729309,719.289978 
	C790.105103,718.263428 791.536438,719.493774 792.945557,719.878906 
	C795.760010,720.648071 797.955933,723.639771 801.756531,722.469788 
	C800.069580,718.750488 796.685974,717.810730 793.797241,716.623047 
	C790.727783,715.361084 788.959595,713.832581 789.945984,710.076111 
	C786.584900,714.318054 781.350037,717.504456 784.971924,724.579651 
M428.469055,834.827332 
	C426.693359,829.227661 421.380890,829.670959 416.860199,827.783936 
	C414.993439,831.907654 413.038086,835.730347 411.549255,839.726807 
	C410.811920,841.706238 407.647675,844.412476 411.241119,846.021851 
	C414.507477,847.484680 413.701233,842.873718 415.571777,841.793274 
	C421.517212,841.082886 417.353882,848.890381 422.788544,849.519470 
	C422.313812,843.871277 427.697876,840.796692 428.469055,834.827332 
M496.831299,853.629517 
	C496.790466,851.358032 497.394684,848.945923 495.299561,847.145874 
	C492.475800,844.719788 485.358887,844.728882 483.300018,847.184021 
	C480.938599,849.999878 479.922760,861.940979 481.904083,863.622803 
	C482.029144,863.729126 482.173828,863.815979 482.318634,863.894958 
	C485.819000,865.804260 489.668030,866.597107 493.319458,865.162170 
	C496.776123,863.803772 496.592224,860.163330 496.709534,857.001282 
	C496.740173,856.173950 496.770111,855.346680 496.831299,853.629517 
M628.090271,852.237244 
	C625.829163,846.377747 624.962524,839.938477 621.288635,834.211914 
	C618.373413,836.434265 619.775696,838.555359 620.128601,840.497253 
	C620.549072,842.810791 619.865356,844.472412 617.484070,845.039062 
	C615.334595,845.550537 613.129761,845.856140 611.912842,843.288757 
	C611.487366,842.391235 611.099487,841.469666 610.778198,840.530457 
	C610.372864,839.345398 609.826294,838.277649 608.365051,838.577026 
	C606.444275,838.970520 606.800659,840.444092 607.167603,841.737976 
	C608.432373,846.197266 609.752686,850.640930 611.059082,855.088318 
	C611.437683,856.377441 611.784851,857.860291 613.577942,857.533997 
	C615.594299,857.166992 615.689331,855.602295 615.159241,854.061279 
	C614.050415,850.838257 615.161926,849.260498 618.391724,848.204285 
	C622.098328,846.992188 623.202026,849.080505 624.111633,851.781311 
	C624.912231,854.158691 625.850769,855.612183 628.090271,852.237244 
M370.675140,826.274170 
	C376.108154,834.399719 381.615784,834.448425 386.361786,826.394775 
	C387.118896,825.110046 387.853394,823.798523 388.447052,822.433533 
	C390.110291,818.609253 390.767487,815.209473 385.845428,812.946411 
	C380.332886,810.411987 378.883240,810.580078 375.787109,815.888733 
	C373.950958,819.036987 372.406158,822.355225 370.675140,826.274170 
M509.435638,865.799927 
	C512.652954,868.450500 517.938049,868.544861 521.153320,865.959839 
	C520.590820,864.382324 519.218018,864.443665 517.900635,864.302917 
	C516.338257,864.136230 514.232727,864.613220 514.071716,862.183838 
	C513.911621,859.767761 515.857605,859.808594 517.538025,859.668640 
	C518.891724,859.555969 520.277283,859.452515 520.304016,857.569458 
	C520.116516,857.294556 519.983337,856.965271 519.742249,856.767517 
	C518.226318,855.524536 514.673706,857.411072 514.749451,854.021851 
	C514.826538,850.569458 518.007324,852.243896 519.821472,851.674866 
	C521.188965,851.246033 522.123474,850.070129 521.086365,849.159851 
	C518.862000,847.207336 515.864502,847.431763 513.059021,847.368347 
	C510.547821,847.311646 510.241058,849.086914 509.905396,851.007019 
	C509.096313,855.635254 509.271515,860.291016 509.435638,865.799927 
M334.213348,779.572693 
	C332.294708,777.583923 330.606750,777.683228 328.963654,779.988708 
	C327.331299,782.279297 325.593079,784.497986 323.832520,786.693054 
	C318.459076,793.392517 318.440186,793.389954 325.319153,798.674377 
	C326.561737,799.628784 327.908844,801.496948 329.504272,799.654053 
	C331.331879,797.543030 328.644562,797.030823 327.696289,795.947754 
	C327.373138,795.578735 326.932312,795.314697 326.557465,794.988586 
	C325.352051,793.940063 324.473022,792.854126 325.614075,791.170532 
	C326.713684,789.547974 327.896667,789.036499 329.787262,790.034973 
	C331.356812,790.863953 332.968170,792.604431 335.040314,790.925110 
	C335.045471,787.988953 330.191223,787.102478 332.201019,783.602661 
	C332.603760,783.556335 332.926605,783.526794 333.247131,783.481140 
	C335.742554,783.125916 337.527679,788.737854 339.593384,785.201416 
	C340.997864,782.796997 336.355408,781.871094 334.213348,779.572693 
M439.065948,855.652527 
	C442.206818,856.342407 445.275726,858.290955 448.663208,856.826233 
	C448.503815,854.431824 446.982086,854.293823 445.824280,853.793091 
	C444.328979,853.146423 442.312775,852.842712 443.002777,850.521362 
	C443.645111,848.360718 445.556610,848.806763 447.189056,848.994873 
	C448.344299,849.128052 449.536621,849.564636 450.091858,847.890808 
	C449.995331,846.000000 448.289429,845.830200 446.993011,845.252625 
	C445.772186,844.708740 445.083252,843.830750 445.403015,842.525940 
	C445.785919,840.963440 447.001190,841.215515 448.211853,841.437012 
	C449.346985,841.644714 450.512207,841.754700 451.666138,841.771240 
	C452.575073,841.784363 453.271210,841.247925 453.414734,840.324036 
	C453.557495,839.405212 452.997955,838.876160 452.208496,838.391296 
	C446.244781,834.728516 442.439178,836.080078 440.562469,842.588196 
	C440.148590,844.023438 439.557373,845.441162 439.388275,846.906250 
	C439.065247,849.704834 436.145203,852.215027 439.065948,855.652527 
M723.061218,782.809753 
	C721.735901,782.024292 720.428345,781.232117 719.137756,782.898315 
	C718.131836,784.196899 718.635437,785.355408 719.318787,786.570984 
	C721.676331,790.764465 723.977295,794.989868 726.357788,799.170105 
	C726.914734,800.148132 727.560364,801.248718 729.272400,800.625427 
	C729.856628,795.668396 733.150696,793.732727 738.750671,794.046631 
	C734.291748,788.486084 728.436951,786.549744 723.061218,782.809753 
M653.427490,842.582703 
	C651.931152,840.036621 650.254761,842.015259 648.724854,842.480225 
	C647.377136,842.889893 646.083069,843.377441 645.227417,841.885437 
	C644.368958,840.388550 644.835693,839.060303 646.110962,837.908020 
	C647.086792,837.026367 649.187439,837.068726 648.745972,834.927063 
	C648.410339,834.749146 648.124023,834.465149 647.841431,834.468750 
	C645.822449,834.494446 643.228149,836.015015 642.164856,833.204956 
	C641.078918,830.335083 644.060059,830.315979 645.614197,829.395691 
	C646.542664,828.845886 647.293701,828.250000 646.760498,827.047852 
	C646.247986,825.892273 645.318665,826.001526 644.246399,826.168457 
	C637.000427,827.296814 635.536438,829.760620 638.267578,836.341980 
	C638.712280,837.413635 639.102112,838.507812 639.532104,839.585693 
	C643.410156,849.308044 644.202026,849.544861 653.042358,843.622314 
	C653.169678,843.536926 653.230835,843.352722 653.427490,842.582703 
M267.718811,737.191956 
	C270.845978,734.308289 271.354767,740.804443 274.292603,738.981567 
	C274.331696,738.535767 274.544769,737.994385 274.383911,737.609253 
	C273.730957,736.046204 271.690338,734.579590 273.696533,732.811890 
	C275.895050,730.874695 276.779633,733.514526 278.106232,734.422791 
	C279.402069,735.309814 280.471497,737.061096 282.514038,734.923523 
	C281.135742,731.179565 278.282623,728.701477 274.986023,726.306641 
	C270.266144,729.957458 265.182587,732.755554 261.496979,737.474426 
	C263.585938,740.627258 265.465729,743.650635 268.995880,745.328674 
	C271.956696,741.842468 266.807068,740.442627 267.718811,737.191956 
M257.799835,718.264465 
	C259.969421,716.362183 263.766296,716.294067 264.616333,712.376343 
	C259.740997,711.115540 256.929138,716.443054 252.313324,715.682678 
	C252.032883,710.457764 258.830719,708.443909 258.319305,702.488586 
	C254.102921,704.517090 251.873306,707.683289 248.957825,709.979919 
	C245.658325,712.579041 246.050720,714.826904 248.626083,717.806152 
	C251.426239,721.045471 254.067291,720.986938 257.799835,718.264465 
M544.010132,853.239563 
	C544.507141,851.459473 547.790100,852.171326 547.236450,848.940491 
	C543.469055,847.654114 539.413757,848.411133 535.415649,848.724243 
	C534.435547,848.800964 533.546326,849.533203 533.610901,850.738281 
	C533.674561,851.926697 534.547424,852.507202 535.596985,852.580872 
	C539.136353,852.829163 539.199097,855.357361 539.241760,857.940063 
	C539.277344,860.092773 539.315369,862.245605 539.365845,864.398010 
	C539.401672,865.922974 539.404114,867.630127 541.477478,867.678223 
	C543.554688,867.726501 543.673767,866.053406 543.694336,864.507874 
	C543.740662,861.031982 543.754700,857.555725 544.010132,853.239563 
M345.181366,810.336731 
	C344.340607,811.664368 344.247162,812.825256 345.905182,813.599609 
	C347.256195,814.230591 348.120392,813.544006 348.843872,812.506104 
	C350.174347,810.597290 351.562469,808.724487 352.806122,806.760437 
	C354.868927,803.502808 356.849274,800.208008 361.437836,802.283325 
	C361.771332,801.620789 362.104919,801.273682 362.038574,801.040161 
	C361.471985,799.045776 352.729492,792.790649 350.797180,792.959412 
	C349.888275,793.038818 349.270325,793.576965 348.929932,794.391418 
	C348.536926,795.331909 349.039368,796.075989 349.748291,796.521729 
	C353.120117,798.641663 351.711914,800.853149 350.023743,803.185669 
	C348.465515,805.338623 347.026428,807.577759 345.181366,810.336731 
M820.434387,659.541199 
	C815.640991,658.210754 821.144226,654.658264 818.747559,652.539856 
	C815.031250,653.118835 814.926147,656.347534 814.398315,659.097412 
	C813.989746,661.225525 815.351807,662.520325 817.218384,663.229858 
	C820.105408,664.327271 822.323669,663.644714 823.929199,660.833435 
	C824.593262,659.670593 825.349670,658.004089 827.490173,659.018738 
	C829.077026,661.733032 825.114441,663.566284 826.198059,666.525879 
	C830.804260,666.346008 831.061523,662.581116 831.505432,659.636841 
	C831.997131,656.375671 829.315002,654.984863 826.589050,654.450378 
	C822.913208,653.729614 823.025757,657.778137 820.434387,659.541199 
M696.161499,822.836304 
	C695.516174,818.335205 691.591614,815.687988 689.892517,811.765198 
	C689.148376,810.047241 687.964905,808.430847 690.040100,806.948547 
	C691.215332,806.109070 691.642151,805.296875 690.628723,804.119446 
	C689.850098,803.214966 688.821167,803.236328 687.914185,803.756287 
	C685.037842,805.405457 682.178467,807.090698 679.388367,808.880249 
	C678.479736,809.463074 678.253967,810.521606 678.896301,811.517944 
	C679.393677,812.289307 680.233521,812.726440 681.019470,812.177856 
	C684.545410,809.716614 685.630249,812.695740 687.052673,814.832397 
	C688.708191,817.319214 690.268066,819.869507 691.896545,822.374756 
	C692.891052,823.904785 694.009521,825.106262 696.161499,822.836304 
M245.567032,698.058167 
	C247.558517,696.164246 251.776489,695.881409 251.022995,692.013184 
	C250.140747,687.483948 241.291397,683.548706 237.094528,685.539734 
	C235.640869,686.229309 232.949646,686.411682 233.958282,689.044067 
	C234.918411,691.549988 236.935196,690.368530 238.578659,689.649719 
	C240.912994,688.628723 243.211945,688.182922 245.691177,689.440735 
	C245.485474,693.106995 242.703720,694.540955 240.487228,696.417969 
	C239.518448,697.238403 238.018311,698.032898 238.953476,699.610229 
	C240.069824,701.493225 241.502914,700.352844 242.795670,699.658752 
	C243.524033,699.267639 244.233444,698.841248 245.567032,698.058167 
M664.631348,823.916260 
	C666.172729,826.664185 667.655029,829.447754 669.279785,832.145447 
	C670.131531,833.559692 670.454102,836.226868 672.989197,835.074219 
	C675.750854,833.818542 673.598572,831.969482 672.930542,830.532349 
	C671.814636,828.131348 670.437134,825.852356 669.181396,823.515808 
	C668.576233,822.389832 667.431396,821.281616 668.636292,819.941711 
	C669.618774,818.849304 671.197876,817.944275 669.713562,816.258362 
	C668.127625,814.457031 666.683350,816.073181 665.279480,816.693604 
	C663.157593,817.631348 661.062439,818.643372 659.020813,819.744141 
	C657.788879,820.408447 656.833862,821.353760 657.933411,823.003113 
	C659.958984,823.811096 662.284180,820.538574 664.631348,823.916260 
M222.580963,659.276123 
	C221.977692,661.472656 222.438507,663.565979 223.270691,665.594055 
	C224.009079,667.393433 224.658417,670.099976 227.098480,669.211548 
	C229.817688,668.221497 227.422470,666.191406 227.041306,664.633484 
	C226.493393,662.394104 226.248917,660.252686 228.962143,659.243164 
	C231.293839,658.375488 233.145935,658.930359 234.412125,661.246460 
	C234.998428,662.319031 234.922333,663.968201 236.999207,664.271912 
	C238.708344,661.412415 237.451218,659.018921 235.678925,656.771790 
	C234.061081,654.720398 232.033768,654.127563 229.487320,655.152527 
	C227.173615,656.083923 224.793427,656.829163 222.580963,659.276123 
M756.240540,767.448547 
	C753.473755,764.848145 750.725159,762.227966 747.928772,759.659790 
	C747.126160,758.922607 746.156982,758.713501 745.301086,759.633911 
	C744.482605,760.514099 744.585876,761.462036 745.396240,762.268066 
	C749.810425,766.659180 753.728821,771.585510 759.357910,775.541138 
	C761.118103,772.449646 765.194702,771.301147 765.066345,766.492737 
	C761.882324,766.565247 759.827942,771.180237 756.240540,767.448547 
M734.154602,772.747986 
	C737.041199,775.745544 739.841187,778.833862 742.849548,781.703796 
	C744.449951,783.230591 745.907532,786.092468 748.431702,785.094604 
	C751.136292,784.025208 752.877441,781.448853 753.992798,776.506470 
	C748.260193,782.878479 745.531067,778.583618 742.510864,775.616455 
	C740.848267,773.983032 739.363892,772.159668 737.635620,770.603638 
	C735.419189,768.608032 734.084656,769.233887 734.154602,772.747986 
M811.928955,688.451965 
	C814.303040,689.158569 816.363159,692.733276 819.490051,689.462463 
	C817.671814,686.883057 814.961731,686.260193 812.759094,684.902710 
	C810.465637,683.489197 809.198120,681.086731 806.878296,678.899780 
	C804.715881,682.609070 802.285583,685.844482 801.862000,691.314758 
	C805.468750,688.883606 807.208008,683.839966 811.928955,688.451965 
M711.030212,803.426331 
	C709.110168,800.942627 707.213196,798.440491 705.258118,795.984741 
	C704.537354,795.079407 703.678284,794.064453 702.364868,794.958679 
	C700.931335,795.934692 701.235718,797.267212 702.100952,798.418335 
	C704.184814,801.190674 706.113403,804.147034 708.575500,806.545837 
	C710.429138,808.351746 711.415649,813.577026 714.510437,811.145508 
	C717.165344,809.059692 712.780640,806.383606 711.030212,803.426331 
M399.769043,825.372742 
	C398.028198,829.109131 396.241333,832.825134 394.572662,836.593506 
	C394.024414,837.831543 393.794037,839.313538 395.396454,840.004395 
	C397.180511,840.773682 397.679993,839.182007 398.217468,838.043152 
	C400.047180,834.166321 401.899597,830.293762 403.520752,826.328613 
	C404.066528,824.993713 405.678619,823.013977 403.476929,822.012634 
	C401.312622,821.028259 401.065613,823.581421 399.769043,825.372742 
M808.102417,706.965332 
	C809.200134,707.603027 810.297058,708.825378 811.879578,706.246033 
	C807.587524,702.989014 803.240356,699.690125 798.920532,696.412048 
	C796.320679,698.626404 797.608398,699.906799 799.255432,701.041199 
	C801.998596,702.930786 804.785278,704.757141 808.102417,706.965332 
M236.386383,678.781555 
	C238.414352,677.219421 241.618774,676.604187 241.384338,672.640625 
	C237.310074,673.406250 234.558182,675.940918 231.419891,677.654419 
	C230.510757,678.150757 230.030197,679.171021 230.629044,680.231384 
	C231.265610,681.358643 232.278290,681.156250 233.220184,680.660828 
	C234.101151,680.197449 234.931808,679.638428 236.386383,678.781555 
z"/>
<path fill="#000000" opacity="1.000000" stroke="none" 
	d="
M750.000000,411.085815 
	C719.167297,411.094086 688.834656,411.106567 658.501953,411.107971 
	C651.873047,411.108276 652.076782,411.084656 651.899475,404.385101 
	C650.992432,370.115997 656.009216,336.700714 665.906799,303.936584 
	C668.098755,296.680511 669.121033,289.078094 672.502441,281.983307 
	C675.974182,291.226044 675.775818,300.895355 676.114075,310.429779 
	C676.453613,319.999786 676.188660,329.591278 676.734985,339.187805 
	C678.650696,332.164032 676.987732,324.802734 679.454224,317.762451 
	C681.736328,322.049011 680.836487,326.794250 681.342896,331.327911 
	C681.840332,335.780182 681.760803,340.358917 683.391602,345.759247 
	C685.687073,341.745758 683.957275,338.050690 686.187317,334.777252 
	C688.887024,337.670166 687.713135,341.209106 688.698730,344.670258 
	C691.129822,342.527832 693.621033,346.692902 695.866821,344.478516 
	C697.920837,342.453186 695.692322,338.991547 697.642090,336.521637 
	C700.205933,338.528351 698.294495,341.792877 700.148315,344.103516 
	C703.480835,343.562073 706.837097,343.086700 706.563660,338.388763 
	C705.548889,320.949768 705.651855,303.408966 701.751953,286.232880 
	C699.097107,274.540314 696.261292,262.943146 692.047974,251.645004 
	C683.599976,228.991425 666.631287,215.163376 645.644897,205.207748 
	C645.236450,205.013977 644.698730,205.092636 644.199524,205.041977 
	C642.726440,206.658829 643.356262,208.580612 643.355957,210.321030 
	C643.345642,261.653351 643.219055,312.986572 643.515137,364.317322 
	C643.590088,377.304108 643.996826,390.300201 644.018616,403.294830 
	C644.031860,411.190216 643.977478,411.131409 636.340454,411.039978 
	C628.841736,410.950195 621.330444,410.745331 613.845581,411.071381 
	C608.753113,411.293274 606.928406,409.060089 607.065979,404.371948 
	C607.290649,396.714142 607.613342,389.055939 607.655212,381.396606 
	C607.749817,364.064148 607.584656,346.729523 607.786316,329.398804 
	C607.836792,325.062714 606.746948,322.658936 602.409973,320.755768 
	C594.038940,317.082367 585.901550,312.691589 580.324341,304.945862 
	C574.566467,296.949127 574.672852,287.745239 575.064270,278.540558 
	C575.184021,275.722229 575.738525,272.939362 575.331055,270.084717 
	C575.125244,268.643372 574.935059,266.733673 577.134277,266.714691 
	C579.236572,266.696503 579.189819,268.583008 579.196045,270.056091 
	C579.216370,274.888733 579.387207,279.738190 579.061035,284.551392 
	C578.294983,295.854919 583.136414,303.967102 592.330994,310.191650 
	C606.624939,319.868408 608.688232,320.045776 622.961060,310.515198 
	C624.727417,309.335754 626.708496,308.328949 627.970276,305.796875 
	C623.032227,306.135315 619.421143,308.921082 615.973450,311.259094 
	C609.604492,315.578186 604.109558,315.268372 598.453247,310.265289 
	C596.475342,308.515869 594.070740,307.239349 591.823303,305.806030 
	C585.597046,301.835297 582.248291,296.189392 582.034119,288.803436 
	C581.865112,282.974243 581.912598,277.139008 581.782043,271.308289 
	C581.706177,267.917023 583.209839,266.667664 586.618469,266.618774 
	C592.313293,266.537048 597.854553,265.451355 603.022949,262.808868 
	C606.291504,261.137787 607.807495,258.914734 607.779358,254.965469 
	C607.615417,231.967407 607.729736,208.967285 607.770325,185.967911 
	C607.773499,184.168060 607.297241,182.296341 608.363770,180.578201 
	C610.352661,179.547379 611.905212,180.848831 613.450073,181.668900 
	C628.752319,189.791794 644.066772,197.892990 659.298767,206.146149 
	C684.746094,219.934265 697.688782,242.506622 704.290588,269.766632 
	C709.415527,290.928223 711.491821,312.382751 712.143372,334.056427 
	C712.205017,336.104675 711.160828,339.367798 714.897339,339.260376 
	C717.783142,339.177490 719.744324,337.678894 719.716125,334.163605 
	C719.455322,301.561829 714.702332,269.789154 702.209045,239.474716 
	C693.787476,219.040329 677.757751,206.362442 658.527283,196.841888 
	C645.540894,190.412659 632.823242,183.439407 620.007568,176.667587 
	C616.043762,174.573151 612.188904,172.286224 608.941162,169.209320 
	C607.155151,169.765091 606.733398,171.316559 606.003052,172.558777 
	C592.862122,194.909988 573.194214,208.920425 548.965576,216.988098 
	C545.949463,217.992401 543.748169,219.327972 542.026611,222.099991 
	C538.690186,227.472183 534.844666,232.525452 531.393616,237.830276 
	C529.235168,241.148132 527.336121,241.336029 525.054993,238.047852 
	C521.541870,232.983612 517.827820,228.053802 514.450073,222.902267 
	C512.338867,219.682312 509.791656,217.664474 505.977264,216.552673 
	C481.943878,209.547531 463.218536,195.398804 449.910797,174.144562 
	C449.116547,172.875992 448.245483,171.650299 447.332642,170.464325 
	C447.058899,170.108627 446.522064,169.955460 446.235382,169.786118 
	C431.925903,179.902740 416.309204,187.595947 400.553314,194.457367 
	C367.481506,208.859634 349.612030,234.099136 342.257690,268.514008 
	C337.786072,289.439087 335.152527,310.484100 334.403839,331.816864 
	C334.374664,332.648682 334.361786,333.486786 334.427338,334.315186 
	C334.675262,337.448761 336.846741,338.591522 339.535400,338.729553 
	C342.684021,338.891174 342.815155,336.403015 342.776794,334.202759 
	C342.529327,320.012939 343.797729,305.918823 345.733368,291.899139 
	C347.995392,275.515167 351.923981,259.565247 358.987549,244.474258 
	C365.687836,230.159363 375.886322,218.831116 388.992645,210.407455 
	C406.245605,199.318710 424.788971,190.494995 443.122040,181.343216 
	C444.585449,180.612686 446.302582,179.527679 447.524841,181.524231 
	C448.977478,183.897186 446.838898,184.843658 445.320953,185.680725 
	C437.882172,189.782867 430.469788,193.950363 422.864502,197.724899 
	C419.602661,199.343765 418.211456,201.255249 418.223572,204.986435 
	C418.365173,248.651871 417.985229,292.322540 418.542694,335.981598 
	C418.831970,358.639465 419.147034,381.299805 419.376038,403.960083 
	C419.389526,405.292908 419.376404,406.626282 419.358643,407.959167 
	C419.331238,410.019135 418.256104,410.953339 416.218628,410.955566 
	C414.060577,410.957916 412.698242,410.191132 412.700500,407.792358 
	C412.703308,404.792847 412.623840,401.793274 412.624451,398.793732 
	C412.637054,336.794922 412.656067,274.796112 412.673615,212.797302 
	C412.674316,210.337860 412.673706,207.878418 412.673706,205.614319 
	C409.813141,204.526932 408.201355,206.006897 406.477417,206.831558 
	C378.255646,220.331665 362.214142,243.124039 355.289307,273.178650 
	C350.391724,294.434662 348.821106,315.940704 348.960510,337.651123 
	C348.966919,338.647217 349.039429,339.652832 349.195465,340.635864 
	C349.477417,342.411987 350.799072,343.160706 352.380829,343.286407 
	C354.506714,343.455444 354.620575,341.808807 354.810974,340.265137 
	C355.052673,338.305908 354.468506,336.242004 355.517029,334.394714 
	C355.650360,334.159760 356.054108,334.078278 357.063202,333.525391 
	C356.737244,339.026154 358.425415,343.278107 363.846130,345.224457 
	C365.763489,343.093903 364.594177,339.775055 366.524017,337.341339 
	C369.140747,339.127045 367.185120,342.477295 369.808777,345.331757 
	C370.642853,336.636658 371.398438,328.759857 372.154022,320.883087 
	C372.576447,320.876678 372.998871,320.870270 373.421295,320.863831 
	C375.743103,327.581177 372.986145,334.960571 375.225677,342.494385 
	C377.850250,339.059326 377.610107,335.748932 377.613159,332.591492 
	C377.628693,316.592957 378.018311,300.624359 380.668610,284.796478 
	C380.883423,283.513641 380.720520,282.094391 382.057922,281.169952 
	C383.700500,281.180511 383.668793,282.698486 383.905548,283.631714 
	C389.999664,307.653809 398.157288,331.185059 401.493469,355.864655 
	C403.772980,372.727600 404.122620,389.716370 404.258331,406.711334 
	C404.284760,410.016907 402.847382,411.244019 399.763397,411.104919 
	C398.765839,411.059906 397.763916,411.118134 396.763977,411.118622 
	C332.098541,411.150970 267.433136,411.189697 202.767700,411.186584 
	C200.163605,411.186462 197.459610,411.706604 194.353790,410.172363 
	C195.824753,404.874451 198.948624,400.343933 201.316025,395.505737 
	C202.464935,393.157684 202.877640,391.510681 200.264572,389.606873 
	C196.932526,387.179169 194.859619,387.275757 192.857132,391.067505 
	C190.135284,396.221375 187.008545,401.175507 185.121750,406.725647 
	C183.988831,410.058167 181.926086,411.278809 178.371643,411.197266 
	C168.376816,410.967987 158.368423,411.273926 148.376724,410.981171 
	C138.145172,410.681366 128.990112,413.427002 120.704002,419.351715 
	C119.156555,420.458160 117.460739,422.376831 115.531990,420.144287 
	C113.827568,418.171448 115.240265,416.361450 116.518372,414.807983 
	C125.472679,403.924927 137.665619,400.513092 150.940979,401.341095 
	C156.451248,401.684784 158.765991,399.947266 160.699310,395.448242 
	C166.886673,381.049561 173.695465,366.951782 182.060516,353.659393 
	C183.195251,351.856262 184.004501,349.785461 186.473022,348.325989 
	C190.807144,356.904968 192.807007,368.361359 206.248795,366.082001 
	C206.638763,366.652832 206.971375,366.914948 206.985886,367.193604 
	C207.412994,375.395386 207.021423,375.476105 216.894836,375.064178 
	C237.026779,374.224243 257.215332,374.744965 277.380524,374.691986 
	C279.211548,374.687164 281.076569,374.790802 282.866302,374.490082 
	C287.102325,373.778229 290.170105,369.515808 289.648102,365.351379 
	C289.177826,361.599823 285.167389,358.436157 281.043671,358.593445 
	C278.381714,358.694946 275.722198,358.920532 273.060150,358.947052 
	C266.836945,359.009094 266.127930,358.297363 266.171783,352.107544 
	C266.323914,330.630219 266.501465,309.153076 266.656097,287.675751 
	C266.669281,285.843933 266.781952,283.978851 266.487213,282.188660 
	C266.212189,280.518097 266.412079,278.052704 263.912323,277.999481 
	C261.566193,277.949585 259.725952,279.383118 259.328705,281.828918 
	C258.849762,284.777588 258.441681,287.776947 258.430267,290.756012 
	C258.351837,311.255188 258.392975,331.754822 258.368500,352.254272 
	C258.366333,354.057556 258.715637,355.913757 257.899994,357.631409 
	C257.591553,357.828613 257.327484,358.139832 257.044830,358.157715 
	C245.123367,358.912079 246.737930,359.799042 246.691360,348.849915 
	C246.599930,327.350830 246.658920,305.850952 246.515778,284.352356 
	C246.496155,281.403961 247.270905,279.229736 249.630325,277.473755 
	C251.764542,275.885345 253.683670,274.008850 255.810333,272.409210 
	C261.614471,268.043457 261.671661,267.322601 255.883530,261.414062 
	C251.695953,264.303986 249.046188,269.091888 244.829132,271.822723 
	C238.842117,275.699738 238.219894,281.103180 238.316040,287.395874 
	C238.618912,307.218048 238.015625,327.050171 238.946930,346.868469 
	C239.048294,349.025818 238.872589,351.197845 238.791321,353.361786 
	C238.659103,356.882538 237.791351,359.391266 233.304611,359.197357 
	C228.852402,359.005005 228.811340,356.248627 228.706970,353.074158 
	C228.577988,349.150177 229.348328,345.152893 227.969818,340.849335 
	C223.870514,342.816315 224.190475,347.002747 222.499832,349.931854 
	C220.893661,352.714600 222.593704,357.826263 217.742310,358.201721 
	C211.352554,358.696198 204.689163,359.481598 200.173691,352.822571 
	C195.624161,346.113220 192.996246,338.717621 193.001022,330.805695 
	C193.011002,314.285004 197.165985,298.833649 207.199554,285.371887 
	C212.906097,277.715576 220.301086,272.114410 229.186813,268.632446 
	C233.129288,267.087555 235.816711,264.917542 237.318970,260.645233 
	C240.533264,251.504028 248.681061,247.514786 256.746429,243.776001 
	C267.173035,238.942642 277.690552,234.302628 288.214233,229.682587 
	C294.326569,226.999146 299.411987,223.082840 303.145508,217.569168 
	C304.793549,215.135376 306.855835,214.116028 309.718262,213.721451 
	C316.804230,212.744629 323.845947,211.446075 330.904633,210.271988 
	C333.713409,209.804810 336.470032,209.587433 338.923157,211.573685 
	C338.504639,214.622726 336.208740,216.303131 334.843933,218.513626 
	C330.006500,226.348312 326.318604,234.718170 323.146088,243.329453 
	C322.269836,245.707870 321.381897,247.765152 318.725128,248.952698 
	C304.738281,255.204544 290.888763,261.764923 276.876038,267.956757 
	C273.207001,269.578064 271.275330,271.602570 272.731354,275.547394 
	C274.621704,280.669067 277.420990,281.935059 282.053162,279.910217 
	C290.905548,276.040558 299.708588,272.057861 308.560730,268.187592 
	C310.796509,267.210052 312.914459,265.732697 316.199524,266.004761 
	C315.120972,272.941193 313.931213,279.733093 313.028595,286.562958 
	C310.557251,305.262299 309.900787,324.048126 310.567657,342.892303 
	C310.856323,351.049255 311.309357,359.220459 311.080322,367.368103 
	C310.945038,372.180206 312.685516,374.412567 317.130066,376.067261 
	C338.629120,384.071198 360.852753,385.953979 383.523834,384.756531 
	C386.269470,384.611481 387.449677,383.311890 387.387329,380.684235 
	C387.315063,377.641815 385.930817,376.050415 382.704712,376.356781 
	C369.677643,377.594025 356.756683,376.555573 343.904968,374.389252 
	C337.338043,373.282349 330.854980,371.819275 324.479340,369.825806 
	C321.243927,368.814209 319.874298,366.870209 319.843018,363.644073 
	C319.773468,356.478546 319.802734,349.308319 319.544739,342.148926 
	C318.593109,315.739105 320.574799,289.623169 326.676666,263.846252 
	C332.101746,240.928467 341.076935,219.853714 357.800629,202.754272 
	C367.892731,192.435425 380.810638,186.390121 393.412598,179.940125 
	C408.242859,172.349640 423.126709,164.863052 438.032501,157.421890 
	C440.744598,156.067978 442.281494,154.093994 443.476013,151.321808 
	C446.968658,143.216431 450.866119,135.286499 454.465149,127.225426 
	C455.921234,123.964149 457.969543,122.570633 461.734711,122.581215 
	C505.566986,122.704453 549.399780,122.690735 593.232178,122.598007 
	C596.676758,122.590721 598.699341,123.631683 600.180115,126.848030 
	C604.008911,135.164307 608.619568,143.124619 611.622070,151.815399 
	C612.451355,154.215729 614.026672,155.561340 616.239075,156.688400 
	C635.237549,166.366745 654.072205,176.372452 673.172424,185.843521 
	C699.647461,198.971390 714.511597,221.291748 723.193420,248.415527 
	C730.331543,270.716492 733.708862,293.671783 734.544373,317.120026 
	C735.085388,332.302673 733.710876,347.426483 734.299255,362.573456 
	C734.468079,366.920319 732.954163,368.995483 728.531311,370.241882 
	C710.541748,375.311554 692.282776,377.270355 673.656433,376.354858 
	C671.766724,376.261932 669.572266,375.595123 668.162537,377.697296 
	C666.285339,380.496857 668.099426,384.447083 671.648560,384.654388 
	C694.473145,385.987549 716.905762,384.291809 738.423706,375.706055 
	C741.617493,374.431732 742.962585,372.495728 743.081055,368.968506 
	C743.886475,344.982910 744.415771,321.004272 742.678772,297.037384 
	C741.933289,286.751678 739.543152,276.695312 738.021118,266.553406 
	C740.216980,265.111908 741.756714,266.634735 743.266296,267.357880 
	C752.129761,271.603882 760.908997,276.025757 769.776917,280.262146 
	C772.033386,281.340118 775.069885,283.429382 776.176331,279.176422 
	C777.049927,275.818573 780.806396,271.925598 774.925781,269.005096 
	C761.949402,262.560486 749.126160,255.808151 736.191406,249.278488 
	C734.319885,248.333740 732.749939,247.379333 732.078613,245.270355 
	C728.467346,233.925507 723.117371,223.408798 716.815430,213.346329 
	C716.570862,212.955719 716.585938,212.402451 716.472656,211.891922 
	C717.648621,209.942398 719.507446,210.024765 721.315247,210.271378 
	C730.221191,211.486343 739.118103,212.767349 748.020386,214.009003 
	C750.143921,214.305191 751.718018,215.261429 752.723145,217.248291 
	C756.379211,224.475677 762.683716,228.730225 769.724854,232.071289 
	C778.902466,236.426117 788.140930,240.652573 797.320251,245.003845 
	C805.839417,249.042160 813.160034,254.341949 816.007141,263.955780 
	C816.625061,266.042328 818.148987,266.853546 819.902100,267.424591 
	C852.239868,277.957764 862.334778,312.967133 859.350586,337.365540 
	C858.688599,342.778351 856.755737,347.688354 853.658020,352.129944 
	C849.649780,357.877319 842.028748,360.321869 835.420044,358.261017 
	C833.389771,357.627960 833.097046,356.043976 832.736511,354.457428 
	C831.392456,348.542175 828.337036,343.318146 826.070618,337.777252 
	C825.659851,336.772949 825.349854,335.494537 822.976440,335.440460 
	C822.976440,341.359802 822.809082,347.271881 823.031372,353.169250 
	C823.198425,357.602112 821.715942,359.378693 817.003845,359.324799 
	C812.418030,359.272278 810.788574,357.650238 810.818970,353.174316 
	C810.976318,330.009003 810.879578,306.841705 811.104919,283.677338 
	C811.146362,279.408722 810.329773,276.192566 807.001709,273.141937 
	C802.650330,269.153198 799.402039,263.983398 794.360413,260.649689 
	C788.513611,267.654388 788.144043,268.171600 795.075500,273.124420 
	C801.836548,277.955536 803.686951,283.723358 803.460449,291.769501 
	C802.893372,311.919983 803.276550,332.096863 803.245483,352.263092 
	C803.237305,357.567993 797.395081,361.069824 792.720947,358.615692 
	C790.499512,357.449371 790.820984,355.246246 790.812927,353.312500 
	C790.766541,342.146301 790.809814,330.979706 790.808167,319.813263 
	C790.806458,308.313538 790.649048,296.811432 790.849060,285.315369 
	C790.923645,281.031250 789.401245,278.317749 785.114624,276.853912 
	C783.060364,278.669006 783.319519,281.221405 783.310730,283.630371 
	C783.228333,306.129395 783.186279,328.628540 783.115295,351.127625 
	C783.092224,358.447968 783.068970,358.443756 775.662292,358.416199 
	C773.162415,358.406921 770.659119,358.344269 768.163147,358.446167 
	C762.882202,358.661774 759.247742,362.043701 759.272888,366.605560 
	C759.298584,371.267609 762.834595,374.643494 768.186646,374.667328 
	C787.685974,374.754150 807.185791,374.696381 826.685303,374.751038 
	C831.012817,374.763184 835.357788,374.811066 839.662354,375.200409 
	C845.657104,375.742554 846.564575,375.108612 847.014038,368.997345 
	C847.060852,368.360535 847.243774,367.733765 847.415039,366.830536 
	C860.057129,366.966431 864.105652,358.417572 866.080261,347.627380 
	C869.689880,349.471588 870.999756,352.575165 872.557068,355.357452 
	C880.045105,368.735382 887.211365,382.289978 893.324951,396.355927 
	C895.122375,400.491486 897.273987,401.747925 902.027466,401.327026 
	C914.109680,400.257141 925.139465,403.550598 934.216858,412.030762 
	C935.539551,413.266388 936.645874,414.765594 937.692261,416.255219 
	C938.591370,417.535309 938.106812,418.771332 937.130127,419.875092 
	C936.017395,421.132507 934.812683,421.073792 933.617981,420.106323 
	C922.731628,411.291107 909.890625,410.485565 896.684387,410.915558 
	C889.857666,411.137848 883.010254,410.803467 876.189880,411.112152 
	C871.776001,411.311920 869.176758,409.990143 867.464233,405.628998 
	C865.405334,400.385712 862.401855,395.514160 859.820496,390.474915 
	C858.540527,387.976227 857.012207,386.982483 854.331726,388.923584 
	C852.011841,390.603577 849.156372,391.702484 851.359314,395.441620 
	C853.302307,398.739594 855.089905,402.133362 856.833923,405.542236 
	C857.563049,406.967651 858.791321,408.326935 857.832642,411.085999 
	C822.252991,411.085999 786.376465,411.085999 750.000000,411.085815 
M550.941101,196.594604 
	C549.093689,197.356552 547.281616,198.222672 545.392944,198.863007 
	C535.441956,202.236832 526.232239,205.679382 514.839661,201.279510 
	C488.781799,191.215836 468.280975,176.318054 459.435364,148.604385 
	C459.104492,147.567749 458.831512,146.276321 456.775726,146.020554 
	C454.239655,150.698517 454.396759,155.726593 455.982239,160.650192 
	C458.629211,168.870117 463.364197,175.966370 469.250305,182.185898 
	C484.282898,198.069992 503.673065,205.691269 524.392944,210.562790 
	C526.750061,211.116989 529.496765,211.098099 531.833130,210.478668 
	C545.706726,206.800720 559.392395,202.529434 571.387268,194.281143 
	C584.626282,185.177338 594.720886,173.513458 600.008606,158.099915 
	C601.662598,153.278641 601.050476,148.843826 597.009338,143.696915 
	C594.278137,152.169327 591.449646,159.372635 587.293945,165.975143 
	C582.986084,172.819427 577.730835,178.816986 571.540161,183.929138 
	C565.488159,188.926727 558.812866,193.037689 550.941101,196.594604 
M551.939270,177.476822 
	C556.920532,174.128769 562.767273,171.853226 566.835144,165.736893 
	C540.366150,165.736893 514.833435,165.736893 488.736298,165.736893 
	C489.563721,166.961655 489.903839,167.750809 490.482269,168.278915 
	C500.936218,177.823578 513.732056,183.700104 526.988647,186.856705 
	C534.171509,188.567047 541.885437,182.359955 549.064575,178.951126 
	C549.814697,178.594986 550.544678,178.196594 551.939270,177.476822 
M615.547180,300.978790 
	C618.606140,298.989166 621.708557,297.062439 624.711609,294.991730 
	C627.564392,293.024567 629.228088,281.084290 627.055664,278.450775 
	C626.666199,277.978607 626.007507,277.595184 625.406128,277.451843 
	C619.970154,276.156189 615.675476,272.231415 610.704590,270.495789 
	C605.388062,268.639465 601.668030,275.765503 596.064819,276.048218 
	C595.271301,276.088226 594.484558,276.525879 593.721619,276.844238 
	C592.586792,277.317719 591.881042,278.167969 591.512268,279.364624 
	C589.188354,286.906860 591.771729,294.265381 598.368774,298.773102 
	C599.738647,299.709137 601.325256,300.413849 602.484070,301.557434 
	C606.762878,305.780243 610.858643,305.150513 615.547180,300.978790 
M530.499939,144.655594 
	C545.637878,144.648102 560.775940,144.658646 575.913757,144.620605 
	C579.773193,144.610901 583.319824,144.075638 583.039856,138.652420 
	C545.877014,138.652420 508.923309,138.652420 471.915466,138.652420 
	C471.637390,143.630554 474.132965,144.715332 478.097870,144.692932 
	C495.231415,144.596146 512.365784,144.653229 530.499939,144.655594 
M833.541077,291.965454 
	C830.688660,289.106384 828.161133,285.749146 823.487183,285.147491 
	C821.553162,291.336243 823.523804,297.315125 823.023499,303.211517 
	C822.713074,306.870514 823.891235,309.978729 826.076660,312.923431 
	C831.743103,320.558563 836.253296,328.850342 839.727295,337.716217 
	C840.417358,339.477386 840.879639,341.600281 843.105408,342.289246 
	C850.716064,334.899078 845.762268,307.993103 833.541077,291.965454 
M220.659729,290.200256 
	C210.043076,302.366119 206.336411,316.912018 206.475052,332.613617 
	C206.506454,336.170349 206.545319,340.306458 210.370438,342.689026 
	C213.196243,341.335236 213.435532,338.621307 214.207352,336.381439 
	C216.106812,330.869049 217.893723,325.161407 221.332016,320.541840 
	C227.072845,312.828644 228.538406,304.399780 227.652618,295.221222 
	C227.362366,292.213470 228.583466,288.978302 226.552597,286.192261 
	C223.841354,286.244171 222.750916,288.359406 220.659729,290.200256 
M264.256714,258.506592 
	C265.699829,260.269745 266.759735,262.508270 269.850922,261.027557 
	C282.738647,254.854233 295.860962,249.152039 308.254578,241.991516 
	C314.364410,238.461533 317.053986,232.482346 319.662201,226.161011 
	C315.338074,224.206787 312.210785,224.823914 309.610107,228.263519 
	C304.662720,234.806839 298.001831,239.089798 290.616455,242.372345 
	C282.417572,246.016495 274.215668,249.654022 266.012665,253.288940 
	C263.905823,254.222549 261.826141,255.151947 264.256714,258.506592 
M759.955017,250.496277 
	C766.492676,253.804688 773.098572,256.986755 779.542358,260.468811 
	C783.420715,262.564514 785.643066,260.737854 787.137695,257.610168 
	C788.721252,254.296570 785.586792,253.806839 783.620361,252.860184 
	C777.769409,250.043533 771.877075,247.312790 766.001038,244.548126 
	C757.148010,240.382736 749.055908,235.281448 743.619934,226.784454 
	C741.382568,223.287109 738.364197,224.188492 735.414795,225.289948 
	C734.844299,227.446442 736.111450,228.760178 736.679871,230.275818 
	C740.677856,240.936432 749.837158,245.713806 759.955017,250.496277 
M693.517151,351.293091 
	C687.405823,351.861084 681.296753,352.455200 675.182007,352.983643 
	C672.874451,353.183075 670.185425,352.792236 670.336243,356.356171 
	C670.473633,359.604340 672.860535,360.520630 675.495789,360.559998 
	C690.077209,360.777954 704.209900,358.148926 718.010986,353.564545 
	C721.091431,352.541290 721.363770,350.123444 720.786377,347.506622 
	C720.060120,344.215149 717.622131,345.298950 715.601074,345.800171 
	C708.516663,347.557037 701.452209,349.394379 693.517151,351.293091 
M340.884857,354.613007 
	C345.733429,355.785522 350.542358,357.171692 355.439758,358.081329 
	C363.115112,359.506958 370.833466,360.965668 378.695709,360.343292 
	C380.751404,360.180542 383.300720,359.680054 383.101929,356.646057 
	C382.921875,353.898651 380.925079,353.293091 378.521027,353.132416 
	C373.377869,352.788605 368.220337,352.481995 363.113129,351.818359 
	C354.842987,350.743744 346.855896,348.432068 338.941772,345.830780 
	C337.016388,345.197968 334.390533,344.118774 333.479858,347.133911 
	C332.717285,349.658661 333.121979,352.158966 336.356171,353.054565 
	C337.635590,353.408875 338.865143,353.943329 340.884857,354.613007 
M827.984863,382.111481 
	C827.515503,381.946259 827.046814,381.638794 826.576599,381.636353 
	C809.462585,381.548126 792.348267,381.435150 775.234375,381.476227 
	C772.353394,381.483124 770.943176,383.361603 770.995422,386.926758 
	C790.007263,386.926758 808.754578,387.014221 827.499939,386.858856 
	C831.649292,386.824493 830.801208,384.637360 827.984863,382.111481 
M278.590668,382.441925 
	C277.998352,382.153564 277.407257,381.616119 276.813507,381.613129 
	C260.053070,381.528992 243.292007,381.432861 226.532089,381.525116 
	C223.765274,381.540344 222.237839,383.449860 222.134750,386.506775 
	C241.832047,386.506775 261.241577,386.506775 280.642120,386.506775 
	C280.687378,384.668610 279.783173,383.867065 278.590668,382.441925 
z"/>
<path fill="#000000" opacity="1.000000" stroke="none" 
	d="
M374.385986,898.706726 
	C313.765625,872.475586 261.905243,835.290955 221.595139,782.925049 
	C190.331314,742.311035 167.275543,697.587830 154.687729,647.734558 
	C153.610031,643.466431 151.517120,642.207153 147.360992,642.244995 
	C135.631882,642.351868 125.518250,638.309631 117.542831,629.501404 
	C116.435646,628.278625 115.513962,626.863831 114.653664,625.448486 
	C113.838799,624.107849 113.451653,622.645508 114.818718,621.350342 
	C116.349937,619.899597 117.870239,620.311401 119.270149,621.534668 
	C129.542999,630.511414 141.907654,632.058533 154.863754,631.729065 
	C161.359329,631.563904 167.864365,631.791443 174.361572,631.662292 
	C177.402893,631.601868 178.669418,632.767639 179.374420,635.806885 
	C195.865204,706.897034 233.153076,765.482422 287.733734,813.149597 
	C329.288971,849.441284 377.436127,873.798950 430.422485,889.017273 
	C468.761841,900.028748 507.857056,904.485840 547.498291,902.447754 
	C592.988708,900.108887 636.724121,889.315552 678.190857,870.299500 
	C756.165100,834.541626 813.521973,777.510376 851.371887,700.746338 
	C861.206970,680.799683 867.963928,659.682251 872.504822,637.922974 
	C873.521057,633.053101 875.473938,631.509216 880.413330,631.559143 
	C891.226562,631.668457 902.068848,632.356262 912.871704,631.080261 
	C920.699890,630.155640 927.626831,627.154114 933.747314,622.238770 
	C935.289062,621.000549 936.714966,619.116760 938.790283,621.340454 
	C940.549927,623.226074 939.646973,625.046143 938.375610,626.735657 
	C930.831970,636.759888 920.311707,641.199097 908.232239,642.221619 
	C899.604370,642.951965 899.645203,642.691467 897.409241,651.096924 
	C883.041382,705.107727 857.591187,753.261169 821.274475,795.755310 
	C796.633118,824.588257 768.714294,849.695557 736.667542,869.953918 
	C693.660767,897.140808 647.004700,915.315735 596.872681,924.230896 
	C521.939270,937.556641 449.264191,929.633423 378.924774,900.502441 
	C377.539764,899.928833 376.131653,899.410950 374.385986,898.706726 
z"/>
<path fill="#000000" opacity="1.000000" stroke="none" 
	d="
M562.805542,411.014099 
	C554.166382,411.025146 546.001343,411.077148 537.836731,411.037903 
	C530.862305,411.004395 530.804993,410.958038 530.807007,404.116547 
	C530.818787,363.291504 530.861206,322.466492 530.888916,281.641449 
	C530.895264,272.310089 530.938599,262.978180 530.849060,253.647629 
	C530.821594,250.790604 531.727356,248.659225 533.820129,246.614853 
	C538.851746,241.699600 542.755432,235.815506 546.365601,229.849915 
	C549.117065,225.303329 552.627625,222.324280 557.583618,220.646133 
	C561.010925,219.485611 564.287781,217.880524 567.561707,216.503601 
	C569.925293,218.581329 569.132446,221.085770 569.135498,223.278046 
	C569.211487,278.599823 569.221375,333.921692 569.242615,389.243561 
	C569.244507,394.073792 569.280762,398.885345 569.917908,403.704712 
	C570.730835,409.853363 569.679382,410.848175 562.805542,411.014099 
z"/>
<path fill="#000000" opacity="1.000000" stroke="none" 
	d="
M473.039368,287.062897 
	C469.915680,281.015533 464.938171,276.551086 460.003021,272.106873 
	C457.069458,269.465179 455.735687,266.561554 455.774597,262.522919 
	C455.965729,242.702621 455.890472,222.879868 455.958038,203.058151 
	C455.966949,200.437317 455.628540,197.711609 457.168365,195.332596 
	C457.561279,195.315109 458.015137,195.154755 458.181702,195.307556 
	C467.538300,203.892456 477.480774,211.645416 488.987030,217.206192 
	C491.361053,218.353500 491.358887,220.548340 491.459595,222.763367 
	C492.814331,252.560455 491.837921,282.374298 492.092438,312.179230 
	C492.338531,340.994202 492.241455,369.812103 492.295410,398.628723 
	C492.296021,398.961853 492.297668,399.295044 492.303589,399.628113 
	C492.506561,411.029144 492.506683,411.025482 481.259186,411.024750 
	C474.596436,411.024292 467.931946,410.949554 461.271576,411.079498 
	C457.579987,411.151550 455.780487,409.886414 455.792236,405.898010 
	C455.879425,376.248962 455.863678,346.599548 455.815796,316.950348 
	C455.811646,314.386261 456.826202,312.558136 458.594971,310.839691 
	C464.206299,305.388092 469.753876,299.870056 475.273254,294.325134 
	C476.860046,292.731018 478.456848,290.965729 475.007202,288.810913 
	C474.041809,288.023376 473.540588,287.543152 473.039368,287.062897 
z"/>
<path fill="#000000" opacity="1.000000" stroke="none" 
	d="
M472.748474,286.884430 
	C473.540588,287.543152 474.041809,288.023376 474.726471,288.683350 
	C474.513519,290.681763 473.771210,292.245056 472.372345,293.597473 
	C467.588745,298.222260 462.844635,302.892334 458.221985,307.677002 
	C456.225189,309.743774 454.554108,310.207855 452.405243,307.955139 
	C447.814423,303.142487 443.210022,298.336548 438.443787,293.700012 
	C435.978851,291.302185 436.620148,289.586487 438.793732,287.512482 
	C443.486847,283.034302 448.175507,278.536072 452.600311,273.797943 
	C455.127228,271.092072 457.060150,271.490875 459.114532,274.029633 
	C463.008667,278.841827 467.387115,283.135956 472.748474,286.884430 
M453.329346,284.150177 
	C451.669830,286.592590 447.362671,287.490112 448.269928,291.342987 
	C449.794281,297.816406 455.985474,299.485046 460.408691,294.768585 
	C461.721802,293.368469 464.859039,291.809265 462.704712,289.681458 
	C460.221710,287.229065 458.913696,282.385559 453.329346,284.150177 
z"/>
<path fill="#000000" opacity="1.000000" stroke="none" 
	d="
M767.964722,369.406494 
	C765.567688,369.313110 763.750244,369.017792 763.856934,366.434387 
	C763.943481,364.338928 765.208557,363.656616 767.184998,363.658844 
	C789.938049,363.684418 812.691040,363.675140 835.614990,363.675140 
	C836.340454,366.977051 836.608582,369.346405 832.188843,369.410156 
	C810.926514,369.716797 789.666626,370.610229 767.964722,369.406494 
z"/>
<path fill="#000000" opacity="1.000000" stroke="none" 
	d="
M252.043533,369.910217 
	C242.080917,369.739471 232.610352,369.474274 223.139008,369.442566 
	C219.246399,369.429535 218.184433,367.671112 218.880951,364.049011 
	C222.701477,362.837006 226.508087,363.608215 230.272537,363.614471 
	C246.243042,363.640930 262.213501,363.683411 278.183990,363.718781 
	C279.015778,363.720642 279.847931,363.725647 280.679291,363.704712 
	C283.041687,363.645294 285.199493,363.997375 285.085999,367.035217 
	C284.982178,369.815613 282.670197,369.322174 280.963867,369.363190 
	C271.488770,369.591095 262.011688,369.736298 252.043533,369.910217 
z"/>
<path fill="#000000" opacity="1.000000" stroke="none" 
	d="
M786.000122,213.001099 
	C784.732544,212.572281 783.765503,212.346771 782.786133,212.258423 
	C780.959229,212.093643 780.119080,211.047394 780.140991,209.316742 
	C780.160706,207.757050 781.083191,206.718079 782.613037,206.799316 
	C786.308594,206.995560 787.110474,204.942719 786.930725,201.822342 
	C786.817566,199.858063 787.707031,198.683731 789.864197,198.761520 
	C792.324097,198.850250 792.990356,200.196472 792.550171,202.405411 
	C791.937256,205.481247 793.424500,206.682159 796.334717,206.688416 
	C798.067871,206.692139 799.819397,206.910522 799.841980,209.208267 
	C799.865173,211.567642 798.282410,212.325180 796.219116,212.295761 
	C793.671692,212.259476 792.787598,213.764664 792.452209,215.990341 
	C792.197632,217.680328 792.606262,220.079498 789.906067,220.009766 
	C787.234314,219.940796 787.152832,217.638275 786.853333,215.657318 
	C786.731384,214.850632 786.484863,214.062759 786.000122,213.001099 
z"/>
<path fill="#000000" opacity="1.000000" stroke="none" 
	d="
M846.736084,795.730103 
	C846.901184,793.987366 847.731140,793.057556 848.979431,793.054688 
	C852.505371,793.046692 854.111694,791.537292 853.862610,787.916992 
	C853.758789,786.408386 854.854309,785.455933 856.411987,785.452698 
	C858.193237,785.448914 859.345154,786.457214 859.160278,788.235901 
	C858.791077,791.787842 860.595764,792.890564 863.763489,793.010071 
	C865.205261,793.064392 866.212646,793.989685 866.242126,795.599976 
	C866.276428,797.467651 865.239868,798.365784 863.469238,798.329773 
	C860.557800,798.270508 859.205383,799.571289 859.281372,802.525757 
	C859.329651,804.404663 859.101013,806.446472 856.601135,806.504517 
	C854.144287,806.561523 853.645813,804.618591 853.720154,802.695435 
	C853.844177,799.483337 852.489136,798.099609 849.270874,798.417908 
	C847.701355,798.573120 846.744019,797.812866 846.736084,795.730103 
z"/>
<path fill="#000000" opacity="1.000000" stroke="none" 
	d="
M193.034668,793.531311 
	C195.704773,793.191345 195.641281,791.410889 195.721481,789.733948 
	C195.815491,787.768433 196.139877,785.942871 198.695221,786.039673 
	C200.934174,786.124451 201.357071,787.764709 201.276443,789.557922 
	C201.138641,792.622437 202.715729,793.724487 205.559555,793.660645 
	C206.978531,793.628845 208.247787,793.986572 208.386795,795.762268 
	C208.535477,797.661499 207.406509,798.676453 205.751877,798.718201 
	C202.281586,798.805847 201.127167,800.598083 201.272110,803.813843 
	C201.334366,805.195496 200.840103,806.568359 199.184372,806.747986 
	C197.418488,806.939514 196.104614,805.873962 196.023071,804.247925 
	C195.857712,800.950317 194.912338,798.969788 191.090546,799.033081 
	C188.956985,799.068420 188.614838,797.086060 188.836136,795.308899 
	C189.149216,792.794617 190.999313,793.308411 193.034668,793.531311 
z"/>
<path fill="#000000" opacity="1.000000" stroke="none" 
	d="
M319.126465,179.648590 
	C320.103760,178.114456 321.296387,178.318756 322.449677,178.487656 
	C324.938690,178.852188 325.584686,177.539444 325.746643,175.323502 
	C325.898285,173.248474 324.836670,169.792221 328.548584,170.215683 
	C331.897675,170.597748 330.544098,173.763199 330.596405,175.940918 
	C330.611816,176.584335 330.727478,177.225357 330.774933,177.662369 
	C332.035522,178.960724 333.446686,178.620209 334.736420,178.677689 
	C336.480621,178.755432 337.675812,179.408798 337.682861,181.295654 
	C337.689362,183.026627 336.819946,184.277695 334.995392,184.210358 
	C331.219116,184.071014 330.001007,185.977295 330.248535,189.459946 
	C330.349854,190.885895 329.806122,192.125870 328.019928,192.124603 
	C326.432770,192.123474 325.381226,191.212204 325.317749,189.743927 
	C325.173523,186.409973 324.337891,184.129242 320.337860,183.828339 
	C318.675476,183.703278 318.819641,181.537506 319.126465,179.648590 
z"/>
<path fill="#000000" opacity="1.000000" stroke="none" 
	d="
M737.354797,182.416916 
	C737.040833,183.756500 736.880981,184.745209 736.579102,185.688492 
	C736.263611,186.674271 735.707703,187.597656 734.479370,187.383423 
	C733.337952,187.184341 732.835205,186.228928 732.832764,185.177811 
	C732.826355,182.414474 732.158691,180.655365 728.886475,179.978638 
	C726.582520,179.502182 726.308472,176.995026 727.986877,175.244995 
	C729.145569,174.036865 731.786072,175.096619 732.520691,172.815216 
	C733.010376,171.294632 732.639282,169.465393 734.190063,168.146347 
	C737.608337,168.703644 736.681702,171.998093 737.926270,173.974533 
	C739.461975,175.077194 742.659363,173.656830 742.995422,176.764572 
	C743.353455,180.076508 740.391418,180.030243 738.371277,180.917648 
	C737.974365,181.091965 737.750305,181.659760 737.354797,182.416916 
z"/>
<path fill="#000000" opacity="1.000000" stroke="none" 
	d="
M508.468994,227.546112 
	C513.790527,234.823013 518.907898,241.802902 524.025269,248.782791 
	C523.558655,249.167419 523.092041,249.552048 522.625427,249.936691 
	C512.481079,242.477951 507.105103,230.545868 497.512421,222.222916 
	C502.701447,221.297394 504.474609,222.177002 508.468994,227.546112 
z"/>
<path fill="#000000" opacity="1.000000" stroke="none" 
	d="
M433.095276,396.221741 
	C433.164032,400.505951 433.256226,404.314819 433.221497,408.122528 
	C433.208710,409.522919 432.643066,410.750549 430.992126,410.924316 
	C429.487457,411.082733 428.833221,410.093964 428.801331,408.826874 
	C428.491791,396.532013 428.736206,384.260834 430.653900,372.021942 
	C433.398499,379.761139 431.536682,387.929016 433.095276,396.221741 
z"/>
<path fill="#000000" opacity="1.000000" stroke="none" 
	d="
M503.096130,378.646118 
	C503.445068,376.615936 503.727509,375.010864 504.121735,372.770325 
	C505.773102,374.490326 505.412140,376.193848 505.502228,377.607819 
	C506.125366,387.386566 506.659973,397.171417 507.139038,406.958405 
	C507.227844,408.772827 507.197235,411.025452 504.568085,410.894684 
	C502.149017,410.774261 502.598938,408.500946 502.610291,406.987946 
	C502.680115,397.681854 502.875824,388.376678 503.096130,378.646118 
z"/>
<path fill="#000000" opacity="1.000000" stroke="none" 
	d="
M518.637512,385.177094 
	C518.860474,383.564453 518.151428,382.079773 519.760193,381.208221 
	C521.761902,382.415253 521.096069,384.430206 521.178040,386.126343 
	C521.499573,392.776184 520.959167,399.448578 521.806946,406.094147 
	C522.049438,407.994934 522.322937,410.729919 519.610229,410.861176 
	C516.256775,411.023438 516.986572,407.907715 517.088806,405.992981 
	C517.452454,399.182892 518.094177,392.387604 518.637512,385.177094 
z"/>
<path fill="#000000" opacity="1.000000" stroke="none" 
	d="
M582.162598,395.152466 
	C582.289124,399.765472 582.385376,403.907043 582.523926,408.047211 
	C582.576965,409.630829 581.969482,410.637115 580.313354,410.696381 
	C578.982178,410.744110 577.887939,410.041565 577.942261,408.703461 
	C578.264954,400.762695 578.713318,392.827057 579.744080,384.894989 
	C582.115540,387.928772 581.737061,391.388580 582.162598,395.152466 
z"/>
<path fill="#000000" opacity="1.000000" stroke="none" 
	d="
M443.498993,397.539124 
	C444.060242,393.081970 443.265564,388.884125 445.512177,385.072357 
	C447.630524,392.763367 447.284973,400.592590 447.074371,408.401764 
	C447.039856,409.680908 446.136169,410.583862 444.761993,410.470032 
	C443.264038,410.345947 442.983246,409.078583 443.010742,407.904480 
	C443.088135,404.600128 443.287872,401.298676 443.498993,397.539124 
z"/>
<path fill="#000000" opacity="1.000000" stroke="none" 
	d="
M260.467285,213.195038 
	C262.834045,213.901001 263.386017,215.320526 263.035675,217.164413 
	C262.670288,219.087570 261.050323,219.458786 259.601288,219.177307 
	C256.604553,218.595215 251.390289,221.375519 251.270966,216.097122 
	C251.157486,211.076935 256.207581,213.620743 259.055176,213.027771 
	C259.364532,212.963333 259.710693,213.075531 260.467285,213.195038 
z"/>
<path fill="#000000" opacity="1.000000" stroke="none" 
	d="
M597.277100,397.219727 
	C597.560303,400.781036 597.903809,403.919586 598.053711,407.067352 
	C598.135010,408.775116 597.830627,410.679688 595.608765,410.688690 
	C593.414917,410.697601 593.672180,408.714172 593.721497,407.316772 
	C593.898621,402.296417 592.846252,397.099884 595.439209,392.219727 
	C597.472412,393.412048 596.930664,395.264801 597.277100,397.219727 
z"/>
<path fill="#000000" opacity="1.000000" stroke="none" 
	d="
M194.513397,534.206665 
	C189.918549,517.013062 196.841766,500.335510 211.294800,493.107880 
	C226.828537,485.339813 244.698578,489.030975 254.763412,502.477509 
	C263.560638,514.230591 264.641846,527.204468 257.830505,540.008179 
	C250.684494,553.440918 238.815628,559.949707 223.516190,558.173279 
	C209.161758,556.506714 199.770889,547.956848 194.513397,534.206665 
M214.031982,522.226807 
	C211.958725,522.405151 211.028275,523.485779 211.481018,525.564941 
	C211.828720,527.161743 213.105240,527.817627 214.480728,527.568787 
	C220.000427,526.570251 221.846451,529.325562 221.942963,534.325012 
	C221.996399,537.093567 223.848434,537.918701 226.377823,537.722046 
	C228.690582,537.542114 231.653915,537.822693 231.784698,534.680847 
	C232.009064,529.291077 234.118515,526.762024 239.731125,527.573853 
	C241.410431,527.816833 242.526932,526.741821 242.564774,524.867737 
	C242.603912,522.928528 241.425568,522.005005 239.750504,522.189636 
	C234.587143,522.758789 232.229507,520.973145 232.269485,515.403320 
	C232.298538,511.353912 228.602737,511.431763 225.536011,511.321289 
	C222.470566,511.210907 221.118118,512.904175 221.486877,515.636841 
	C222.206284,520.968079 219.373383,522.323242 214.031982,522.226807 
z"/>
<path fill="#000000" opacity="1.000000" stroke="none" 
	d="
M596.978638,751.634155 
	C590.283020,779.105347 574.299744,797.540039 547.300842,805.687744 
	C515.424805,815.307373 481.380402,800.656494 466.238525,770.949463 
	C453.299103,745.563477 456.500458,721.778748 472.272461,698.550476 
	C489.009888,673.900330 523.133911,663.707886 552.600647,673.850586 
	C581.082214,683.654114 603.622009,721.829346 596.978638,751.634155 
M527.510498,712.655762 
	C543.611328,712.665649 543.611694,712.665833 551.161804,698.372192 
	C551.782715,697.196838 552.259827,695.917847 553.037354,694.858521 
	C554.707703,692.582764 554.513611,690.841614 552.360291,688.859680 
	C548.327698,685.147827 544.418091,681.281982 540.696716,677.258789 
	C537.883972,674.217896 534.601135,673.614136 530.602234,673.065674 
	C521.542725,671.823181 515.977722,676.771667 510.370026,682.397339 
	C501.587677,691.207825 502.318451,690.804504 507.594086,702.150146 
	C511.711243,711.004456 517.347107,714.301208 527.510498,712.655762 
M509.540527,775.934021 
	C507.471100,779.155701 505.397278,782.374634 503.334076,785.600281 
	C502.255524,787.286621 502.142548,788.744690 503.463654,790.589539 
	C510.179230,799.967102 517.826843,805.585815 530.733765,805.349609 
	C542.928528,805.126404 547.800537,797.383423 553.998901,790.015015 
	C554.450134,789.478516 554.740662,788.205078 554.423889,787.716431 
	C550.907104,782.291321 547.904419,776.490967 543.415649,771.765381 
	C542.788818,771.105530 541.222412,771.188171 540.089783,771.183167 
	C532.429077,771.149292 524.763733,771.338013 517.108887,771.127869 
	C513.632019,771.032471 511.372162,772.265686 509.540527,775.934021 
M465.441406,759.470337 
	C467.934235,767.177124 472.585510,773.661377 477.226501,780.138977 
	C478.085846,781.338440 479.242920,782.253540 480.829407,782.638428 
	C494.905121,786.053345 498.544800,784.397766 505.970825,771.611206 
	C507.762695,768.525818 507.877106,765.848022 506.171600,762.748962 
	C503.367004,757.652832 500.544403,752.536438 498.227875,747.211792 
	C496.511932,743.267517 494.065369,741.933228 489.807159,741.924744 
	C471.659027,741.888733 471.659271,741.764038 465.441406,759.470337 
M578.659302,781.459167 
	C579.698425,780.165527 580.774780,778.899963 581.770630,777.573792 
	C589.012329,767.929993 593.359436,758.030823 586.120605,746.189697 
	C584.248413,743.127258 582.878906,741.383606 578.985229,741.817322 
	C574.555420,742.310852 570.024780,742.062195 565.546509,741.900879 
	C562.483398,741.790588 560.629517,743.008545 559.284790,745.733765 
	C556.200256,751.985107 552.943787,758.152954 549.679016,764.313293 
	C548.682861,766.192932 548.176270,767.853516 549.522705,769.851990 
	C552.118530,773.704651 554.487915,777.709045 557.037659,781.593811 
	C557.929016,782.951843 558.866821,784.624329 560.868530,784.285828 
	C566.573975,783.320801 572.480286,783.827759 578.659302,781.459167 
M506.127136,710.254089 
	C503.872498,706.177307 501.592773,702.114197 499.374298,698.017822 
	C498.342010,696.111755 496.963257,695.114380 494.663513,694.965332 
	C485.725067,694.385864 477.636383,695.259949 474.148041,705.369629 
	C473.937469,705.979919 473.519409,706.568665 473.063812,707.036926 
	C465.224701,715.094604 465.763580,723.755310 471.161407,732.783508 
	C471.245636,732.924377 471.292450,733.089417 471.345367,733.247009 
	C472.205566,735.808838 473.944275,736.802368 476.668518,736.721375 
	C481.657379,736.573059 486.656250,736.585876 491.646210,736.715088 
	C494.837708,736.797729 496.985474,735.553040 498.532166,732.769531 
	C501.117828,728.116150 503.700989,723.441833 506.637421,719.009705 
	C508.587036,716.066956 508.691376,713.549927 506.127136,710.254089 
M560.312073,695.152161 
	C555.539734,697.807190 555.123291,703.445862 552.034302,707.235657 
	C547.858826,712.358398 548.612122,717.001404 551.831787,722.569641 
	C559.929321,736.573792 559.662964,736.728760 575.944763,736.705261 
	C577.609253,736.702820 579.274902,736.635803 580.938049,736.676941 
	C583.011047,736.728149 584.334595,735.822266 585.234436,733.937927 
	C589.251038,725.526794 592.195618,717.199463 584.661194,709.034363 
	C583.664246,707.953979 582.957153,706.562012 582.292969,705.226196 
	C578.759888,698.121033 573.842346,693.492126 565.138184,695.148987 
	C563.861450,695.391968 562.484253,695.107300 560.312073,695.152161 
z"/>
<path fill="#000000" opacity="1.000000" stroke="none" 
	d="
M297.823120,704.304199 
	C289.377380,698.281982 284.119537,690.365906 280.848846,681.032898 
	C278.308899,673.785156 279.292297,672.406555 287.116150,672.046814 
	C287.614471,672.023865 288.123077,672.075500 288.610901,671.995178 
	C292.960541,671.279053 295.055695,672.830200 296.198700,677.419678 
	C299.401215,690.278625 308.462830,697.137756 320.547272,696.689270 
	C330.783722,696.309326 339.051422,689.045410 342.446594,677.236267 
	C343.112640,674.919556 343.381805,672.577759 346.451477,672.381409 
	C350.405426,672.128479 354.469360,671.273987 358.160980,673.288818 
	C359.511261,674.025757 358.687042,675.707336 358.437866,676.989563 
	C352.882935,705.574585 323.496246,718.981262 297.823120,704.304199 
z"/>
<path fill="#000000" opacity="1.000000" stroke="none" 
	d="
M319.127594,672.378479 
	C323.719940,672.275513 327.874969,672.091187 332.031647,672.037720 
	C335.410950,671.994263 336.340057,673.599976 335.376434,676.851440 
	C333.383942,683.574585 325.989563,689.307129 318.964111,689.313599 
	C312.238586,689.319824 305.838531,683.988159 303.886353,676.876648 
	C302.932709,673.402588 304.012756,671.833252 307.718048,672.046753 
	C311.369476,672.257202 315.032837,672.259888 319.127594,672.378479 
z"/>
<path fill="#000000" opacity="1.000000" stroke="none" 
	d="
M302.807861,772.859558 
	C303.569031,772.610535 304.118866,772.362427 304.513489,772.515259 
	C306.655121,773.344482 308.377716,774.604553 307.387512,777.246033 
	C306.855103,778.666504 305.561737,779.132874 304.153870,778.383850 
	C301.880981,777.174683 300.293732,775.668945 302.807861,772.859558 
z"/>
<path fill="#000000" opacity="1.000000" stroke="none" 
	d="
M312.689453,769.446106 
	C312.199341,773.593201 310.156525,771.634644 308.590851,770.760925 
	C307.213928,769.992432 306.799774,768.547424 308.072968,767.496460 
	C310.233215,765.713257 311.654327,766.969604 312.689453,769.446106 
z"/>
<path fill="#000000" opacity="1.000000" stroke="none" 
	d="
M418.773651,833.804199 
	C421.866302,832.102051 423.088776,833.688171 423.347778,836.202209 
	C423.537445,838.043030 422.104126,839.034241 420.440765,838.697449 
	C417.827087,838.168152 417.560455,836.317749 418.773651,833.804199 
z"/>
<path fill="#000000" opacity="1.000000" stroke="none" 
	d="
M488.206787,849.058777 
	C491.287231,848.982056 493.227722,849.964905 493.112885,852.957947 
	C492.988739,856.192627 493.499908,859.891724 490.570709,862.079773 
	C488.895142,863.331238 486.083252,862.527222 485.862000,860.254761 
	C485.497131,856.507507 484.344238,852.336975 488.206787,849.058777 
z"/>
<path fill="#000000" opacity="1.000000" stroke="none" 
	d="
M384.869019,819.916382 
	C384.309326,822.596741 383.288208,824.677917 381.824371,826.504944 
	C380.853394,827.716858 379.576385,828.663574 377.963226,827.674316 
	C376.200714,826.593384 376.358673,824.722656 376.958527,823.220825 
	C378.070282,820.437256 378.025635,816.517212 381.810150,815.826599 
	C383.834167,815.457336 384.794006,817.517273 384.869019,819.916382 
z"/>
</svg>